# xmcd
#
# Track frame offsets: 
#        150
#        19565
#        30822
#        44215
#        56932
#        68237
#        82127
#        90102
#        105710
#        123757
#        137097
#        158440
#
# Disc length: 2281 seconds
#
# Revision: 2
# Processed by: cddbd v1.5.2PL0 Copyright (c) Steve Scherf et al.
# Submitted via: ExactAudioCopy v0.99pb1
#
DISCID=9108e70c
DTITLE=Ry Cooder - Ry Cooder
DYEAR=1971
DGENRE=Rock
TTITLE0=Vigilante Man
TTITLE1=How Can You, Keep Moving (Unless You Migrate Too)
TTITLE2=Alimony
TTITLE3=France Change
TTITLE4=One Meatball
TTITLE5=Do Re Mi
TTITLE6=Old Kentucky Home
TTITLE7=Goin' To Brownville
TTITLE8=Denomination Blues
TTITLE9=On A Monday
TTITLE10=Hey Porter
TTITLE11=Dark Is The Night
EXTD=
EXTT0=
EXTT1=
EXTT2=
EXTT3=
EXTT4=
EXTT5=
EXTT6=
EXTT7=
EXTT8=
EXTT9=
EXTT10=
EXTT11=
PLAYORDER=
